Coordinates
version=1
nRows=11
nColumns=33
inDegrees=yes

Units are S.I. units (second, meters, Newtons, ...)
Angles are in degrees.

endheader
time	ground_thorax_rot_x	ground_thorax_rot_y	ground_thorax_rot_z	ground_thorax_tx	ground_thorax_ty	ground_thorax_tz	clav_prot_r	clav_elev_r	scapula_abduction_r	scapula_elevation_r	scapula_upward_rot_r	scapula_winging_r	shoulder_elv_r	plane_of_elev_r	axial_rot_r	elbow_flexion_r	pro_sup_r	wrist_flex_r	wrist_dev_r	clav_prot_l	clav_elev_l	scapula_abduction_l	scapula_elevation_l	scapula_upward_rot_l	scapula_winging_l	shoulder_elv_l	plane_of_elev_l	axial_rot_l	elbow_flexion_l	pro_sup_l	wrist_flex_l	wrist_dev_l	
5.5200	-34.175794	-23.502289	33.457957	-179.289104	811.710302	7.378519	7.617246	-45.000000	38.658883	-45.000000	-37.871939	3138.437721	-3709.530242	147.323737	-114.148288	1813.437438	20.178065	18.690531	8.287372	15.013739	37.705519	-37.045659	-45.000000	-45.000000	84.362393	72.231898	25.107452	-33.516116	1091.833313	25.339270	5.824287	-18.968889	
5.5300	-33.789490	-24.125990	34.307542	-174.711338	809.911400	7.386169	7.711438	-45.000000	38.624097	-45.000000	-38.167477	3138.607189	-3709.827342	147.432399	-113.913654	1812.687575	12.650821	18.958315	9.180609	14.968212	37.712320	-36.912353	-45.000000	-45.000000	84.185683	71.946830	25.068477	-33.797859	1090.962819	17.359773	6.838661	-19.330418	
5.5400	-33.369166	-24.772815	35.207626	-170.033131	808.045457	7.384285	7.807373	-45.000000	38.573185	-45.000000	-38.523239	3138.783191	-3710.123652	147.521310	-113.705231	1812.316757	9.412562	19.009199	9.714771	14.916802	37.713292	-36.747396	-45.000000	-45.000000	84.007098	71.678065	25.011331	-34.239861	1090.523654	13.889742	7.420468	-19.442125	
5.5500	-32.918711	-25.429892	36.153977	-165.261779	806.120590	7.375334	7.875071	-45.000000	38.501440	-45.000000	-38.929987	3138.968267	-3710.416633	147.601171	-113.533807	1812.251208	9.690306	18.899884	9.940563	14.877798	37.717287	-36.557405	-45.000000	-45.000000	83.810729	71.435944	24.925939	-34.801682	1090.439015	14.110246	7.635518	-19.367569	
5.5600	-32.431971	-26.102301	37.147338	-160.405057	804.145601	7.362584	7.930404	-45.000000	38.412726	-45.000000	-39.393826	3139.160002	-3710.718742	147.685464	-113.369420	1812.177904	10.083601	18.791135	10.158338	14.845190	37.715454	-36.332681	-45.000000	-45.000000	83.601637	71.200947	24.814713	-35.414614	1090.352032	14.412330	7.843508	-19.291395	
5.5700	-31.903149	-26.790891	38.198774	-155.471919	802.130229	7.349748	7.990707	-45.000000	38.307832	-45.000000	-39.930330	3139.354770	-3711.028582	147.771503	-113.190739	1812.096264	10.597367	18.680675	10.356910	14.801637	37.710977	-36.079199	-45.000000	-45.000000	83.389264	70.966347	24.675570	-36.109211	1090.262505	14.793100	8.041365	-19.220470	
5.5800	-31.328348	-27.495419	39.309249	-150.472192	800.085328	7.340700	8.058503	-45.000000	38.188939	-45.000000	-40.528689	3139.550930	-3711.340009	147.864547	-112.991323	1812.009468	11.227019	18.571389	10.532655	14.750172	37.706349	-35.793803	-45.000000	-45.000000	83.178636	70.728950	24.513072	-36.882888	1090.164978	15.242544	8.224779	-19.154351	
5.5900	-30.713529	-28.201402	40.466898	-145.416477	798.023088	7.339175	8.118012	-45.000000	38.055331	-45.000000	-41.167829	3139.748007	-3711.651221	147.968176	-112.769165	1811.912348	11.972356	18.462472	10.686232	14.698222	37.706337	-35.485986	-45.000000	-45.000000	82.956703	70.496595	24.319409	-37.722182	1090.061384	15.754737	8.398694	-19.095143	
5.6000	-30.051349	-28.913594	41.675576	-140.316093	795.957224	7.348583	8.196813	-45.000000	37.916973	-45.000000	-41.844993	3139.937327	-3711.965418	148.078722	-112.503308	1811.804718	12.818422	18.355717	10.814072	14.624781	37.702840	-35.150939	-45.000000	-45.000000	82.737093	70.260605	24.102282	-38.630300	1089.949082	16.320124	8.557844	-19.042247	
5.6100	-29.353230	-29.618001	42.916282	-135.182980	793.903056	7.371904	8.282951	-45.000000	37.774761	-45.000000	-42.531034	3140.120337	-3712.285172	148.200988	-112.185170	1811.681645	13.755786	18.249704	10.918895	14.534914	37.694669	-34.793521	-45.000000	-45.000000	82.511199	70.031621	23.864275	-39.589822	1089.832243	16.932358	8.704634	-18.997494	
5.6200	-28.622534	-30.308581	44.178437	-130.029759	791.877439	7.411655	8.383357	-45.000000	37.640376	-45.000000	-43.187105	3140.287671	-3712.615848	148.343017	-111.787431	1811.542748	14.763872	18.144516	11.000050	14.420658	37.679425	-34.414962	-45.000000	-45.000000	82.280852	69.808898	23.611635	-40.579746	1089.708856	17.581717	8.834253	-18.960216	
